<svg xmlns="http://www.w3.org/2000/svg" viewBox="0 0 64 80" fill="none">
  <!-- stem -->
  <path d="M32 78 C32 60 32 48 32 36" stroke="#86A789" stroke-width="2" stroke-linecap="round"/>
  <!-- left leaf -->
  <path d="M32 52 C24 46 18 38 22 30 C26 38 30 44 32 52Z" fill="#a8c4aa" opacity="0.7"/>
  <!-- right leaf -->
  <path d="M32 48 C40 42 46 34 42 26 C38 34 34 40 32 48Z" fill="#a8c4aa" opacity="0.7"/>
  <!-- petals -->
  <path d="M32 36 C28 28 22 22 20 14 C24 10 28 12 32 18 C36 12 40 10 44 14 C42 22 36 28 32 36Z" fill="#86A789" opacity="0.85"/>
  <path d="M30 34 C26 26 20 20 18 11 C21 8 26 10 30 17Z" fill="#a8c4aa"/>
  <path d="M34 34 C38 26 44 20 46 11 C43 8 38 10 34 17Z" fill="#a8c4aa"/>
  <!-- pistil -->
  <circle cx="32" cy="22" r="3" fill="#FAF9F6" opacity="0.8"/>
</svg>
